<svg xmlns="http://www.w3.org/2000/svg" xmlns:xlink="http://www.w3.org/1999/xlink" fill="none" version="1.1" width="129.15826416015625" height="83.28005981445312" viewBox="0 0 129.15826416015625 83.28005981445312"><g style="mix-blend-mode:passthrough"><g><path d="M-407.6912118988037,-205.54928192749023C-407.68321189880373,-205.87898192749023,-407.6432118988037,-206.20478192749022,-407.6432118988037,-206.53808192749023C-407.6432118988037,-224.37438192749022,-422.1011118988037,-238.8328819274902,-439.9375118988037,-238.8328819274902C-452.8049118988037,-238.8328819274902,-463.88181189880373,-231.28839192749024,-469.0743118988037,-220.39858192749023C-471.3246118988037,-221.52998192749024,-473.8274118988037,-222.22588192749024,-476.5172118988037,-222.22588192749024C-484.7617118988037,-222.22588192749024,-491.5619118988037,-216.22738192749023,-492.9008118988037,-208.36538192749023C-502.7446618988037,-205.00428192749024,-509.8332118988037,-195.69748192749023,-509.8332118988037,-184.71818192749024C-509.8332118988037,-170.91898192749022,-498.6467118988037,-159.73198192749024,-484.8513118988037,-159.71998192749024C-484.8513118988037,-159.71998192749024,-407.6422118988037,-159.71998192749024,-407.6422118988037,-159.71998192749024C-407.6422118988037,-159.71998192749024,-407.6422118988037,-159.72408192749023,-407.6422118988037,-159.72408192749023C-395.0352118988037,-159.78908192749023,-384.8422118988037,-170.01968192749024,-384.8422118988037,-182.63468192749025C-384.8422118988037,-195.27428192749022,-395.0642118988037,-205.51268192749023,-407.6912118988037,-205.54928192749023C-407.6912118988037,-205.54928192749023,-407.6912118988037,-205.54928192749023,-407.6912118988037,-205.54928192749023Z" fill="#98C4D8" fill-opacity="1"/></g><g><path d="M-411.85803051757813,-209.7164C-411.85003051757815,-210.0461,-411.8100305175781,-210.37189999999998,-411.8100305175781,-210.7052C-411.8100305175781,-228.54149999999998,-426.2679305175781,-243,-444.1043305175781,-243C-456.9717305175781,-243,-468.04863051757815,-235.45551,-473.2412305175781,-224.5657C-475.4914305175781,-225.6971,-477.9942305175781,-226.393,-480.6840305175781,-226.393C-488.9285305175781,-226.393,-495.72873051757813,-220.3945,-497.0676305175781,-212.5325C-506.9114905175781,-209.1714,-514.0000305175781,-199.8646,-514.0000305175781,-188.8853C-514.0000305175781,-175.0861,-502.8135305175781,-163.8991,-489.01813051757813,-163.8871C-489.01813051757813,-163.8871,-411.8090305175781,-163.8871,-411.8090305175781,-163.8871C-411.8090305175781,-163.8871,-411.8090305175781,-163.8912,-411.8090305175781,-163.8912C-399.2020305175781,-163.9562,-389.0080305175781,-174.1867,-389.0080305175781,-186.80180000000001C-389.00903051757814,-199.4413,-399.2310305175781,-209.6797,-411.85803051757813,-209.7164C-411.85803051757813,-209.7164,-411.85803051757813,-209.7164,-411.85803051757813,-209.7164Z" fill="#EFD9A0" fill-opacity="1"/></g><g><path d="M-470.35596618310547,-214.57956620361327C-469.18366518310546,-212.8728962036133,-465.2933451831055,-213.5087962036133,-461.66669518310545,-215.9999462036133C-458.04007518310544,-218.4910662036133,-456.0503751831055,-221.89408620361328,-457.2226751831055,-223.60074620361328C-458.39507518310546,-225.30744220361328,-462.28534518310545,-224.67148620361328,-465.9119951831055,-222.1803662036133C-469.5386451831055,-219.68921620361328,-471.52826818310547,-216.28623620361327,-470.35596618310547,-214.57956620361327C-470.35596618310547,-214.57956620361327,-470.35596618310547,-214.57956620361327,-470.35596618310547,-214.57956620361327Z" fill="#FEFEFE" fill-opacity="1"/></g><g><path d="M-478.40622745751955,-201.46913548461913C-477.6246764575195,-200.33131548461915,-475.3769964575195,-200.51771548461915,-473.3859064575195,-201.88539548461915C-471.39481645751954,-203.25306548461913,-470.4142564575195,-205.28419548461915,-471.19583645751953,-206.42195148461914C-471.9773664575195,-207.55976848461913,-474.2250464575195,-207.37342848461915,-476.21616645751953,-206.00575548461913C-478.2072534575195,-204.63801548461913,-479.1877834575195,-202.60694548461913,-478.40622745751955,-201.46913548461913C-478.40622745751955,-201.46913548461913,-478.40622745751955,-201.46913548461913,-478.40622745751955,-201.46913548461913Z" fill="#FEFEFE" fill-opacity="1"/></g></g></svg>