<svg xmlns="http://www.w3.org/2000/svg" xmlns:xlink="http://www.w3.org/1999/xlink" fill="none" version="1.1" width="128" height="130.37237548828125" viewBox="0 0 128 130.37237548828125"><g style="mix-blend-mode:passthrough"><g><path d="M1096.890704975128,-200.71099917678833C1096.7877049751282,-200.91619917678833,1096.7997049751282,-201.16049917678833,1096.9217049751283,-201.35489917678834C1099.148704975128,-204.88489917678834,1101.3287049751282,-210.23799917678832,1100.583704975128,-217.06519917678833C1099.4437049751282,-225.73119917678832,1098.3957049751282,-230.82053917678832,1098.0317049751282,-232.48072917678832C1097.9547049751282,-232.82303917678834,1097.6257049751282,-233.04705917678834,1097.2787049751282,-232.99275917678833C1097.2787049751282,-232.99275917678833,1084.1577049751281,-231.09976917678833,1084.1577049751281,-231.09976917678833C1084.1427049751283,-231.09976917678833,1084.1347049751282,-231.09976917678833,1084.1197049751281,-231.09201917678834C1083.7237049751282,-231.06096917678832,1077.1284049751282,-230.49463917678833,1072.255704975128,-226.93361917678834C1072.0462049751281,-226.77845917678832,1071.774604975128,-226.75518917678832,1071.5496049751282,-226.87929917678832C1068.5662049751281,-228.48166917678833,1065.4512049751281,-229.82613917678833,1062.2387049751283,-230.89806917678834C1061.3775049751282,-231.18511917678833,1060.919704975128,-232.11608917678834,1061.2456049751281,-232.96173917678834C1061.2456049751281,-232.96173917678834,1061.3464049751283,-233.23326917678833,1061.3464049751283,-233.23326917678833C1061.905104975128,-234.68405917678834,1060.8343049751281,-236.2356991767883,1059.2825049751282,-236.2356991767883C1059.2825049751282,-236.2356991767883,1028.0213049751283,-236.2356991767883,1028.0213049751283,-236.2356991767883C1026.4385049751281,-236.2356991767883,1025.3677049751282,-234.62975917678833,1025.9807049751282,-233.17121917678833C1026.3376049751282,-232.31005917678834,1025.879804975128,-231.34027917678833,1024.987504975128,-231.05323917678834C1021.6827049751282,-229.98509917678834,1018.4787049751282,-228.62732917678832,1015.4128049751282,-226.99568917678832C1015.1878049751282,-226.87931917678833,1014.9240049751281,-226.90258917678833,1014.7223049751282,-227.04222917678834C1009.8729049751282,-230.49463917678833,1003.4173049751282,-231.04546917678834,1003.0216049751282,-231.07650917678833C1003.0061049751282,-231.07650917678833,1002.9983049751281,-231.07650917678833,1002.9828049751281,-231.08425917678832C1002.9828049751281,-231.08425917678832,989.8621749751281,-232.97733917678832,989.8621749751281,-232.97733917678832C989.5162649751281,-233.02845917678832,989.1889649751282,-232.80577917678832,989.1095349751282,-232.46530917678834C988.7448649751282,-230.80503917678834,987.6973849751282,-225.71569917678832,986.5568049751282,-217.04979917678833C985.8352149751282,-210.45539917678832,987.8525649751282,-205.23409917678833,989.9940649751281,-201.69629917678833C990.1104549751282,-201.5022991767883,990.1259849751282,-201.26189917678835,990.0173449751281,-201.06009917678833C985.9624849751282,-193.02139917678832,983.7894549751281,-184.16569917678834,983.6626851351282,-175.16319917678834C983.4609329751282,-161.95879917678832,987.6430749751282,-149.63869917678835,994.8590049751282,-139.59189917678833C994.9366049751281,-139.48329917678834,994.9754049751282,-139.35909917678833,994.9831049751282,-139.23499917678834C994.9831049751282,-139.23499917678834,995.8366049751281,-116.61969917678833,995.8366049751281,-116.61969917678833C995.8808049751282,-115.46469917678833,996.8295049751282,-114.54969917678832,997.9859049751282,-114.54869917678833C997.9859049751282,-114.54869917678833,1002.0749049751282,-114.54869917678833,1002.0749049751282,-114.54869917678833C1002.8896049751281,-114.54869917678833,1003.6423049751281,-115.01369917678834,1004.0069049751281,-115.74269917678834C1004.0069049751281,-115.74269917678834,1008.0649049751282,-123.69569917678832,1008.0649049751282,-123.69569917678832C1008.2434049751282,-124.05169917678833,1012.0686049751282,-123.48569917678833,1012.4022049751281,-123.27669917678833C1021.0458049751281,-117.97769917678833,1031.1327049751283,-114.81269917678833,1041.9177049751281,-114.55569917678832C1053.913304975128,-114.26869917678833,1065.1173049751283,-117.53569917678833,1074.5834049751281,-123.36169917678833C1074.9171049751283,-123.57069917678832,1075.3593049751282,-123.44669917678833,1075.5378049751282,-123.08969917678833C1075.5378049751282,-123.08969917678833,1079.1845049751282,-115.73569917678833,1079.1845049751282,-115.73569917678833C1079.549204975128,-114.99869917678834,1080.2941049751282,-114.54069917678834,1081.1165049751282,-114.54069917678834C1081.1165049751282,-114.54069917678834,1089.0467049751283,-114.54069917678834,1089.0467049751283,-114.54069917678834C1090.2037049751282,-114.53969917678833,1091.1537049751282,-115.45569917678833,1091.1957049751281,-116.61169917678833C1091.1957049751281,-116.61169917678833,1092.0647049751283,-139.52979917678834,1092.0647049751283,-139.52979917678834C1092.072704975128,-139.65399917678832,1092.110704975128,-139.77809917678832,1092.1807049751283,-139.88669917678834C1099.0327049751281,-149.60779917678832,1103.0747049751283,-161.45449917678832,1103.0747049751283,-174.24779917678833C1103.0747049751283,-183.75939917678832,1100.8397049751281,-192.73569917678833,1096.890704975128,-200.71099917678833C1096.890704975128,-200.71099917678833,1096.890704975128,-200.71099917678833,1096.890704975128,-200.71099917678833ZM1041.9023049751281,-143.86669917678833C1029.3714049751281,-143.86669917678833,1016.7318049751282,-152.64119917678835,1016.7318049751282,-165.17069917678833C1016.7318049751282,-177.70009917678834,1027.9747049751281,-191.36229917678833,1040.505704975128,-191.36229917678833C1053.0366049751283,-191.36229917678833,1064.8768049751282,-179.45349917678834,1064.8768049751282,-166.92399917678833C1064.8768049751282,-154.39449917678832,1054.4331049751281,-143.86669917678833,1041.9023049751281,-143.86669917678833C1041.9023049751281,-143.86669917678833,1041.9023049751281,-143.86669917678833,1041.9023049751281,-143.86669917678833Z" fill="#FFA750" fill-opacity="1"/></g><g><path d="M1088.204,-112.62799999999999C1088.204,-112.62799999999999,1080.001,-112.62799999999999,1080.001,-112.62799999999999C1078.272,-112.62799999999999,1076.7188,-113.59200000000001,1075.9536,-115.145C1075.9536,-115.145,1072.9541,-121.19,1072.9541,-121.19C1062.7924,-115.321,1051.238,-112.375,1039.4466,-112.65100000000001C1028.8794,-112.90299999999999,1018.4956999999999,-115.819,1009.3059,-121.106C1009.3059,-121.106,1006.3523,-115.145,1006.3523,-115.145C1005.5871,-113.59200000000001,1004.0338,-112.63499999999999,1002.3044,-112.63499999999999C1002.3044,-112.63499999999999,994.1017,-112.63499999999999,994.1017,-112.63499999999999C991.6608,-112.63499999999999,989.679,-114.548,989.5872,-116.989C989.5872,-116.989,988.7225,-139.876,988.7225,-139.876C980.8564,-151.0095,976.800907,-164.04829999999998,977.0075183,-177.6149C977.152896,-187.0649,979.31073,-196.1324,983.42742,-204.58769999999998C981.33081,-208.2988,979.22654,-213.9842,980.00704,-221.1233C981.19307,-230.1142,982.27198,-235.43226,982.68518,-237.29936C983.02847,-238.82255,984.48286,-239.82766,986.02905,-239.61023C986.02905,-239.61023,999.5422,-237.65899,999.5422,-237.65899C1000.5293,-237.57483,1006.7197,-236.93206,1011.8923,-233.63412C1014.7235000000001,-235.08032,1017.6771,-236.31993,1020.6843,-237.32997C1020.3782,-238.56192,1020.6001,-239.87803,1021.3194,-240.95694C1022.1693,-242.234814,1023.603,-243.0019038,1025.1377,-242.9999964514C1025.1377,-242.9999964514,1057.4437,-242.9999964514,1057.4437,-242.9999964514C1058.9511,-242.9999964514,1060.3667,-242.257763,1061.2237,-241.01051C1061.9991,-239.88353,1062.2293,-238.46864,1061.8512,-237.15397C1064.7436,-236.15924,1067.5901,-234.93493,1070.3371,-233.51168C1075.548,-236.91676,1081.868,-237.57483,1082.871,-237.65899C1082.871,-237.65899,1096.384,-239.61023,1096.384,-239.61023C1097.93,-239.83212,1099.399,-238.81442,1099.728,-237.29936C1100.141,-235.43995,1101.22,-230.1449,1102.406,-221.1692C1103.217,-213.7851,1100.983,-207.9697,1098.764,-204.18970000000002C1102.903,-195.5431,1105,-186.2767,1105,-176.6354C1105,-163.5278,1101.059,-150.9404,1093.599,-140.197C1093.599,-140.197,1092.719,-116.989,1092.719,-116.989C1092.627,-114.541,1090.637,-112.62799999999999,1088.204,-112.62799999999999C1088.204,-112.62799999999999,1088.204,-112.62799999999999,1088.204,-112.62799999999999ZM1073.6274,-126.439C1073.9028,-126.439,1074.1783,-126.401,1074.4538,-126.325C1075.2572,-126.095,1075.9306,-125.529,1076.3055,-124.779C1076.3055,-124.779,1080.07,-117.181,1080.07,-117.181C1080.07,-117.181,1088.135,-117.219,1088.135,-117.219C1088.135,-117.219,1089.031,-140.833,1089.031,-140.833C1089.0529999999999,-141.406,1089.237,-141.957,1089.566,-142.43200000000002C1096.659,-152.4863,1100.409,-164.3084,1100.409,-176.6279C1100.409,-185.856,1098.343,-194.70929999999998,1094.264,-202.9427C1093.798,-203.87619999999998,1093.851,-204.96269999999998,1094.41,-205.8504C1096.376,-208.9723,1098.5720000000001,-214.0684,1097.853,-220.6108C1096.927,-227.6275,1096.07,-232.3258,1095.558,-234.84321C1095.558,-234.84321,1083.491,-233.0986,1083.491,-233.0986C1083.452,-233.09095,1083.376,-233.08329,1083.338,-233.08329C1083.031,-233.06034,1076.7417,-232.5247,1072.2194,-229.2191C1071.2935,-228.5457,1070.0463,-228.4539,1069.0439,-228.9972C1066.0773,-230.5925,1062.9797,-231.9313,1059.7851,-232.9991C1058.7593,-233.34294,1057.917,-234.08856,1057.4513,-235.06514C1056.9922,-236.03691,1056.954,-237.13113,1057.3365,-238.14117C1057.3365,-238.14117,1057.4437,-238.4243,1057.4437,-238.4243C1057.4437,-238.4243,1025.1453,-238.40899,1025.1453,-238.40899C1025.5737,-237.41424,1025.5584,-236.26648,1025.0993,-235.27937C1024.636,-234.27383,1023.7731,-233.50804,1022.7196,-233.16748C1019.4335,-232.1011,1016.2461,-230.7519,1013.1931,-229.135C1012.1976,-228.6054,1010.9881,-228.6854,1010.0711,-229.3415C1005.5565,-232.5553,999.3968,-233.07565,999.1366,-233.09095C999.083,-233.0986,998.9836,-233.10624,998.93,-233.1139C998.93,-233.1139,986.87069,-234.85087,986.87069,-234.85087C986.35801,-232.3334,985.501,-227.6199,984.57511,-220.5725C984.01654,-215.507,985.10311,-210.6557,987.8119,-206.2023C988.3475,-205.31470000000002,988.3934,-204.24349999999998,987.9266,-203.3176C983.87115,-195.2678,981.74394,-186.5983,981.6062,-177.5539C981.41491,-164.8212,985.26379,-152.57819999999998,992.7397,-142.164C993.084,-141.69,993.2753,-141.131,993.2982,-140.542C993.2982,-140.542,994.1782,-117.234,994.1782,-117.234C994.1782,-117.234,1002.3121,-117.234,1002.3121,-117.234C1002.3121,-117.234,1005.9774,-124.703,1005.9774,-124.703C1006.3446,-125.452,1007.018,-126.011,1007.8214,-126.248C1008.6249,-126.478,1009.4972,-126.363,1010.2165,-125.919C1019.0773,-120.494,1029.2237,-117.495,1039.569,-117.25C1051.062,-116.982,1062.3102,-120.004,1072.0663,-126.011C1072.5331,-126.286,1073.0764,-126.44,1073.6273,-126.44C1073.6273,-126.44,1073.6274,-126.439,1073.6274,-126.439ZM1007.7984,-121.994C1007.8061,-121.994,1007.8061,-121.994,1007.7984,-121.994C1007.8061,-121.994,1007.8061,-121.994,1007.7984,-121.994C1007.7984,-121.994,1007.7984,-121.994,1007.7984,-121.994ZM989.0055,-139.471C989.0055,-139.471,989.0055,-139.471,989.0055,-139.471ZM1098.373,-204.9857C1098.373,-204.9857,1098.373,-204.978,1098.373,-204.9857C1098.373,-204.978,1098.373,-204.9857,1098.373,-204.9857C1098.373,-204.9857,1098.373,-204.9857,1098.373,-204.9857ZM1071.2094,-233.0373C1071.2094,-233.0373,1071.2094,-233.0373,1071.2094,-233.0373Z" fill="#333333" fill-opacity="1"/></g><g><path d="M1026.4386024475098,-163.5689002746582C1026.4386024475098,-153.9422002746582,1034.2425624475097,-146.1382002746582,1043.8693024475097,-146.1382002746582C1053.4959024475097,-146.1382002746582,1061.2999024475098,-153.9422002746582,1061.2999024475098,-163.5689002746582C1061.2999024475098,-173.1955402746582,1053.4959024475097,-180.9995002746582,1043.8692024475097,-180.9995002746582C1034.2425624475097,-180.9995002746582,1026.4386024475098,-173.1955402746582,1026.4386024475098,-163.5688002746582C1026.4386024475098,-163.5688002746582,1026.4386024475098,-163.5689002746582,1026.4386024475098,-163.5689002746582Z" fill="#FF917B" fill-opacity="1"/></g><g><path d="M1040.999972052002,-144.52843342895508C1029.094992052002,-144.52843342895508,1019.410572052002,-154.2128334289551,1019.410572052002,-166.11783342895507C1019.410572052002,-178.02284342895507,1029.094992052002,-187.70723342895508,1040.999972052002,-187.70723342895508C1052.904972052002,-187.70723342895508,1062.5893720520019,-178.02284342895507,1062.5893720520019,-166.11783342895507C1062.5893720520019,-154.2128334289551,1052.904972052002,-144.52843342895508,1040.999972052002,-144.52843342895508C1040.999972052002,-144.52843342895508,1040.999972052002,-144.52843342895508,1040.999972052002,-144.52843342895508ZM1040.999972052002,-183.85658342895508C1031.219272052002,-183.85658342895508,1023.2612220520019,-175.8985334289551,1023.2612220520019,-166.11783342895507C1023.2612220520019,-156.33713342895507,1031.219272052002,-148.37913342895507,1040.999972052002,-148.37913342895507C1050.780672052002,-148.37913342895507,1058.738672052002,-156.33713342895507,1058.738672052002,-166.11783342895507C1058.738672052002,-175.8985334289551,1050.780672052002,-183.85658342895508,1040.999972052002,-183.85658342895508C1040.999972052002,-183.85658342895508,1040.999972052002,-183.85658342895508,1040.999972052002,-183.85658342895508Z" fill="#333333" fill-opacity="1"/></g><g><path d="M1029.6258355773925,-166.4930716369629C1025.7179355773926,-166.4930716369629,1022.5465355773925,-168.8484716369629,1022.5465355773925,-171.7364716369629C1022.5465355773925,-174.6308716369629,1025.7265355773925,-176.9796716369629,1029.6258355773925,-176.9796716369629C1033.5251355773926,-176.9796716369629,1036.7052355773926,-174.62447163696288,1036.7052355773926,-171.7364716369629C1036.7052355773926,-168.8484716369629,1033.5251355773926,-166.4930716369629,1029.6258355773925,-166.4930716369629C1029.6258355773925,-166.4930716369629,1029.6258355773925,-166.4930716369629,1029.6258355773925,-166.4930716369629ZM1029.6258355773925,-173.1290716369629C1028.5860355773925,-173.1290716369629,1027.7455355773925,-172.5065716369629,1027.7455355773925,-171.7364716369629C1027.7455355773925,-170.9662716369629,1028.5860355773925,-170.34377163696288,1029.6258355773925,-170.34377163696288C1030.6656355773925,-170.34377163696288,1031.5061355773926,-170.9662716369629,1031.5061355773926,-171.7364716369629C1031.5061355773926,-172.5065716369629,1030.6570355773927,-173.1290716369629,1029.6258355773925,-173.1290716369629C1029.6258355773925,-173.1290716369629,1029.6258355773925,-173.1290716369629,1029.6258355773925,-173.1290716369629ZM1052.9609355773925,-166.4930716369629C1049.0616355773925,-166.4930716369629,1045.8816355773927,-168.8484716369629,1045.8816355773927,-171.7364716369629C1045.8816355773927,-174.6308716369629,1049.0616355773925,-176.9796716369629,1052.9609355773925,-176.9796716369629C1056.8602355773926,-176.9796716369629,1060.0403355773926,-174.62447163696288,1060.0403355773926,-171.7364716369629C1060.0403355773926,-168.8484716369629,1056.8689355773927,-166.4930716369629,1052.9609355773925,-166.4930716369629C1052.9609355773925,-166.4930716369629,1052.9609355773925,-166.4930716369629,1052.9609355773925,-166.4930716369629ZM1052.9609355773925,-173.1290716369629C1051.9211355773925,-173.1290716369629,1051.0806355773925,-172.5065716369629,1051.0806355773925,-171.7364716369629C1051.0806355773925,-170.9662716369629,1051.9211355773925,-170.34377163696288,1052.9609355773925,-170.34377163696288C1054.0007355773926,-170.34377163696288,1054.8413355773926,-170.9662716369629,1054.8413355773926,-171.7364716369629C1054.8413355773926,-172.5065716369629,1054.0007355773926,-173.1290716369629,1052.9609355773925,-173.1290716369629C1052.9609355773925,-173.1290716369629,1052.9609355773925,-173.1290716369629,1052.9609355773925,-173.1290716369629ZM1024.7561355773926,-195.8672716369629C1023.3177355773926,-195.8672716369629,1022.1566355773925,-196.72727163696288,1022.1566355773925,-197.79264163696288C1022.1566355773925,-200.95658163696288,1018.6819355773926,-203.5301216369629,1014.4100355773926,-203.5301216369629C1010.1382055773926,-203.5301216369629,1006.6635355773926,-200.95658163696288,1006.6635355773926,-197.79264163696288C1006.6635355773926,-196.72727163696288,1005.5023955773926,-195.8672716369629,1004.0639855773926,-195.8672716369629C1002.6255655773925,-195.8672716369629,1001.4644355773926,-196.72727163696288,1001.4644355773926,-197.79264163696288C1001.4644355773926,-203.08087163696288,1007.2700355773926,-207.3807716369629,1014.4100355773926,-207.3807716369629C1021.5501355773926,-207.3807716369629,1027.3556355773926,-203.08087163696288,1027.3556355773926,-197.79264163696288C1027.3556355773926,-196.72727163696288,1026.1945355773926,-195.8672716369629,1024.7561355773926,-195.8672716369629C1024.7561355773926,-195.8672716369629,1024.7561355773926,-195.8672716369629,1024.7561355773926,-195.8672716369629ZM1078.4621355773925,-195.8672716369629C1077.0237355773925,-195.8672716369629,1075.8627355773926,-196.72727163696288,1075.8627355773926,-197.79264163696288C1075.8627355773926,-200.95658163696288,1072.3880355773927,-203.5301216369629,1068.1160355773925,-203.5301216369629C1063.8442355773925,-203.5301216369629,1060.3694355773926,-200.95658163696288,1060.3694355773926,-197.79264163696288C1060.3694355773926,-196.72727163696288,1059.2083355773925,-195.8672716369629,1057.7699355773925,-195.8672716369629C1056.3315355773925,-195.8672716369629,1055.1704355773925,-196.72727163696288,1055.1704355773925,-197.79264163696288C1055.1704355773925,-203.08087163696288,1060.9761355773926,-207.3807716369629,1068.1160355773925,-207.3807716369629C1075.2561355773926,-207.3807716369629,1081.0616355773925,-203.08087163696288,1081.0616355773925,-197.79264163696288C1081.0616355773925,-196.72727163696288,1079.9006355773927,-195.8672716369629,1078.4621355773925,-195.8672716369629C1078.4621355773925,-195.8672716369629,1078.4621355773925,-195.8672716369629,1078.4621355773925,-195.8672716369629Z" fill="#333333" fill-opacity="1"/></g></g></svg>