<svg xmlns="http://www.w3.org/2000/svg" xmlns:xlink="http://www.w3.org/1999/xlink" fill="none" version="1.1" width="64" height="68.96804809570312" viewBox="0 0 64 68.96804809570312"><g style="mix-blend-mode:passthrough"><g><path d="M865.4549955314636,-81.155165921167C865.4549955314636,-81.155165921167,843.9634955314636,-77.205729821167,847.4951265314636,-53.42426982116699C851.0267555314637,-29.64286982116699,880.3414955314636,-30.86936982116699,888.9372955314636,-33.496169821166994C897.5329955314636,-36.12666982116699,914.7245955314636,-45.314869821166994,906.8970955314636,-67.153069821167C902.7540955314636,-78.41012982116699,893.0843955314637,-81.43224982116699,888.4787955314637,-81.155165921167C883.8773955314637,-80.88177382116699,865.4549955314636,-81.155165921167,865.4549955314636,-81.155165921167C865.4549955314636,-81.155165921167,865.4549955314636,-81.155165921167,865.4549955314636,-81.155165921167Z" fill="#ACACEF" fill-opacity="1"/></g><g><path d="M868.8268455282212,-41.04044575195312C863.1936455282212,-43.874045751953126,859.2346455282211,-48.73604575195313,857.8284455282211,-54.32204575195313C855.1373855282211,-65.01394575195313,859.4354455282212,-76.20461575195313,859.4354455282212,-76.20461575195313C859.4354455282212,-76.20461575195313,861.6284455282212,-79.88064575195312,861.6284455282212,-79.88064575195312C855.5098855282212,-77.39794575195313,844.9300255282211,-70.55938575195313,847.5038305282211,-53.42074575195312C851.0820755282211,-29.635545751953124,880.7834455282211,-30.865745751953128,889.4926455282211,-33.492545751953124C893.2090455282212,-34.61574575195313,898.5156455282212,-36.935845751953124,902.7552455282212,-40.922145751953124C889.0407455282211,-34.475245751953125,876.5985455282212,-37.13164575195312,868.8268455282212,-41.04044575195312C868.8268455282212,-41.04044575195312,868.8268455282212,-41.04044575195312,868.8268455282212,-41.04044575195312Z" fill="#9E9AEA" fill-opacity="1"/></g><g><path d="M877.8222,-31.031940902709962C871.7296,-31.031940902709962,864.5634,-32.24184090270996,858.5162,-36.06904090270996C851.65849,-40.40864090270996,847.58169,-47.22264090270996,846.39698,-56.33054090270996C844.50873,-70.84504090270997,849.71676,-79.02864090270997,854.41885,-83.33888090270996C859.5199,-88.01460090270996,865.0242,-89.21188350270997,865.2546,-89.26229860270996C865.3409,-89.27909850270996,865.4315,-89.29171750270996,865.5219,-89.28750610270995C865.7071,-89.28329470270997,883.8653,-88.98083490270996,888.3493,-89.28329470270997C893.2612,-89.61938490270997,902.2333,-86.18295090270996,906.8778,-75.35274090270997C907.1535,-74.71414090270996,906.8655,-73.97064090270996,906.2443,-73.69334090270996C905.619,-73.41184090270997,904.8909,-73.70594090270995,904.6194,-74.34024090270997C900.485,-83.98164090270996,892.7223,-87.04837090270996,888.5139,-86.76695090270997C884.0957,-86.46449090270995,867.5171,-86.72914090270996,865.6289,-86.76274090270996C864.835,-86.56529090270996,860.1946,-85.28819090270996,855.98209,-81.38545090270996C849.84844,-75.70564090270996,847.4419,-67.38344090270996,848.83646,-56.65404090270996C849.91837,-48.33184090270996,853.60842,-42.12694090270996,859.8079,-38.20324090270996C869.8661,-31.83864090270996,883.7171,-33.35104090270996,888.4891,-35.01884090270996C892.496,-36.41774090270996,912.1927000000001,-44.60554090270996,906.4787,-68.53464090270995C906.3183,-69.21094090270996,906.7214,-69.89154090270996,907.3838,-70.05954090270995C908.0502,-70.22764090270996,908.7125,-69.80754090270996,908.8771,-69.13534090270996C915.0971,-43.08064090270996,893.6479,-34.16184090270996,889.2873,-32.63684090270996C886.9218,-31.813440902709964,882.7176,-31.03204090270996,877.8222,-31.03204090270996C877.8222,-31.03204090270996,877.8222,-31.031940902709962,877.8222,-31.031940902709962Z" fill="#000F04" fill-opacity="1"/></g><g><path d="M871.2093622489929,-89.17881345794677C869.036962248993,-91.21817345794678,860.236702248993,-98.42240345794677,854.0041122489929,-87.85617345794678C853.3871382489929,-86.81064345794678,853.656837148993,-85.46582345794678,854.646964248993,-84.76020345794677C856.8858222489929,-83.16048345794678,859.878362248993,-82.76888345794677,861.4189722489929,-82.67648345794677C861.8216822489929,-82.65068345794678,862.0470322489929,-82.20358345794678,861.825372248993,-81.87108345794678C860.8463222489929,-80.38218345794678,859.2613722489929,-76.89088345794679,861.987922248993,-72.44278345794677C862.4940722489929,-71.61518345794678,863.462032248993,-71.17558345794677,864.4152622489929,-71.35658345794678C870.4039622489929,-72.49448345794679,872.155162248993,-74.35648345794678,873.5775622489929,-77.05718345794678C873.7807622489929,-77.44508345794678,874.3164622489929,-77.48948345794678,874.593562248993,-77.15328345794677C876.9801622489929,-74.25678345794678,879.6069622489929,-72.14348345794679,886.1425622489929,-73.65828345794678C887.077262248993,-73.87618345794678,887.7939622489929,-74.64838345794678,887.923262248993,-75.59788345794678C888.462662248993,-79.54728345794678,887.3912622489929,-82.72458345794678,885.4885622489929,-84.34268345794678C885.1375622489929,-84.64197345794678,885.296462248993,-85.20722345794678,885.7471622489929,-85.30698345794679C887.3875622489929,-85.66904345794677,888.7988622489929,-86.51139345794678,889.7483622489929,-87.50150345794678C890.5796622489929,-88.36971345794677,890.5759622489929,-89.73667345794678,889.777862248993,-90.63443345794678C886.7890622489929,-93.99643745794678,879.215362248993,-98.25245345794677,872.132962248993,-89.24530345794678C871.9076622489929,-88.95343345794677,871.4790622489929,-88.92759345794678,871.2093622489929,-89.17881345794677C871.2093622489929,-89.17881345794677,871.2093622489929,-89.17881345794677,871.2093622489929,-89.17881345794677Z" fill="#BFE5BD" fill-opacity="1"/></g><g><path d="M885.7471512062073,-85.29959297851562C875.9235512062073,-86.05696297851563,877.2461512062073,-91.12581297851563,879.7879512062073,-94.47305297851562C879.7695512062073,-94.46936034851562,879.7510512062073,-94.46566772851563,879.7288512062073,-94.46197507851562C878.4838512062073,-94.15164197851563,877.4271512062073,-93.72306797851563,876.5331512062073,-93.23539297851562C875.4654512062073,-92.61102297851562,874.3829512062073,-91.75021297851562,873.3078512062073,-90.60122297851562C872.3509512062072,-89.43007297851562,872.0258512062072,-88.48428297851562,872.0258512062072,-88.48428297851562C872.0258512062072,-88.48428297851562,871.9149512062073,-88.70225297851563,871.6859512062073,-89.00520297851563C871.5196512062073,-88.99411297851563,871.3460512062072,-89.04953297851563,871.2130512062073,-89.17514297851562C870.6389512062073,-89.71475297851562,870.0318512062073,-90.21817297851563,869.3953512062072,-90.68249297851563C869.0702512062073,-90.79702297851563,868.7155512062072,-90.88200297851563,868.3239512062073,-90.92263297851562C860.8684412062073,-84.32425297851563,856.1764212062072,-85.76143297851563,853.8415222062073,-87.51263297851563C853.4536132062073,-86.52989297851562,853.7602536062072,-85.38459297851563,854.6469262062072,-84.75284297851563C856.8858012062072,-83.15315297851562,859.8783212062073,-82.76155297851562,861.4189412062073,-82.66915297851563C861.8216412062072,-82.64325297851562,862.0470012062073,-82.19625297851563,861.8253312062072,-81.86375297851562C861.2748512062072,-81.02875297851563,860.5359512062073,-79.56575297851563,860.4731412062073,-77.65565297851563C864.4003512062072,-83.67775297851563,869.6872512062073,-84.16905297851562,870.5923512062072,-82.96835297851563C873.9543512062073,-78.10275297851562,865.2058512062073,-71.51175297851563,865.1984512062073,-71.50435297851563C870.5628512062073,-72.65335297851563,872.2216512062073,-74.46735297851562,873.5812512062073,-77.04605297851563C873.7844512062072,-77.43405297851562,874.3201512062072,-77.47835297851563,874.5972512062073,-77.14215297851563C876.1895512062073,-75.21365297851563,877.8890512062072,-73.63235297851563,880.7744512062072,-73.24075297851563C881.1956512062072,-73.22595297851562,881.5835512062073,-73.19645297851562,881.9160512062073,-73.14835297851562C877.9998512062073,-74.24935297851562,874.1612512062072,-79.04855297851563,875.2585512062072,-82.34405297851562C876.3558512062073,-85.63951297851563,886.0353512062072,-83.79225297851562,886.0353512062072,-83.79225297851562C885.8617512062073,-83.98435297851563,885.6806512062072,-84.16905297851562,885.4885512062073,-84.33165297851562C885.1339512062073,-84.63459297851563,885.2964512062073,-85.20355297851563,885.7471512062073,-85.29960297851562C885.7471512062073,-85.29960297851562,885.7471512062073,-85.29959297851562,885.7471512062073,-85.29959297851562Z" fill="#A2DD9E" fill-opacity="1"/></g><g><path d="M863.9940645263672,-70.20024383926392C862.8117645263671,-70.20024383926392,861.6776145263672,-70.82084383926392,861.0421645263672,-71.85534383926392C860.4953745263672,-72.74574383926392,860.0742045263672,-73.65824383926392,859.7971045263672,-74.56714383926392C859.6825845263672,-74.93654383926392,859.5902245263671,-75.31334383926392,859.5200245263671,-75.68654383926392C859.4077945263672,-76.28844383926392,859.8047745263672,-76.86734383926392,860.4067045263672,-76.97964383926391C861.0086245263672,-77.09184383926392,861.5875545263672,-76.69484383926391,861.6997845263672,-76.09294383926391C861.7552045263672,-75.80474383926392,861.8253945263672,-75.50924383926392,861.9140645263672,-75.22104383926391C862.1394245263672,-74.48954383926392,862.4830145263672,-73.74694383926392,862.9337645263672,-73.01174383926391C863.2034645263672,-72.57204383926391,863.7169645263672,-72.33934383926392,864.2083645263672,-72.43534383926391C870.0641645263672,-73.54744383926392,871.4236645263671,-75.33924383926391,872.5985645263672,-77.56334383926392C872.8645645263672,-78.07164383926391,873.3686645263672,-78.41194383926391,873.9396645263672,-78.46844383926391C874.5155645263671,-78.52824383926392,875.0830645263671,-78.29514383926391,875.4506645263672,-77.84784383926392C877.5491645263672,-75.30234383926391,879.7843645263672,-73.31094383926391,885.8949645263672,-74.72964383926391C886.3863645263672,-74.84414383926392,886.7631645263672,-75.25054383926391,886.8296645263672,-75.73824383926392C887.2841645263671,-79.05594383926392,886.4971645263672,-82.02624383926391,884.7755645263671,-83.48934383926391C884.2967645263672,-83.89584383926392,884.0904645263672,-84.53904383926391,884.2435645263672,-85.14814383926392C884.3954645263672,-85.76916383926391,884.8892645263672,-86.24856383926391,885.5144645263672,-86.38212383926391C886.8333645263672,-86.67399383926391,888.0858645263672,-87.35748383926392,888.9540645263672,-88.26263383926391C889.3751645263671,-88.70227383926391,889.3751645263671,-89.41900383926392,888.9540645263672,-89.89190383926392C887.3358645263672,-91.70959383926392,884.4467645263671,-93.61595383926391,881.2029645263672,-93.51989383926391C878.2879645263672,-93.43123383926391,875.5318645263671,-91.76132383926392,873.0122645263672,-88.55450383926392C872.7127645263672,-88.17474383926391,872.2679645263672,-87.93763383926391,871.7856645263672,-87.90057383926391C871.2991645263672,-87.86430383926391,870.8196645263672,-88.03308383926391,870.4630645263671,-88.36607383926392C869.3251645263672,-89.43377383926392,865.2981645263671,-92.87704383926392,861.2157245263672,-92.29333383926392C858.8327745263672,-91.95343383926392,856.7306045263672,-90.26873383926392,854.9720345263672,-87.28729383926391C854.6432145263672,-86.72572383926392,854.7836145263672,-86.02746383926392,855.3045345263672,-85.65434383926392C857.3069445263671,-84.22454383926392,860.0445745263672,-83.86244383926392,861.4965045263672,-83.77384383926392C862.0765345263671,-83.73684383926391,862.5974645263672,-83.39324383926392,862.8560645263672,-82.87604383926391C863.1146645263672,-82.35884383926391,863.0777645263672,-81.73444383926392,862.7600645263672,-81.25044383926391C862.5014045263672,-80.85884383926391,862.2797345263672,-80.43764383926391,862.1024045263672,-79.99804383926391C861.9919845263672,-79.72544383926392,861.7776345263671,-79.50784383926391,861.5066045263671,-79.39354383926391C861.2355945263672,-79.27914383926392,860.9302245263672,-79.27734383926392,860.6578545263671,-79.38844383926391C860.3852045263671,-79.49884383926391,860.1677045263672,-79.71324383926392,860.0533245263672,-79.98424383926391C859.9389645263672,-80.25524383926391,859.9371445263672,-80.56064383926392,860.0482645263672,-80.83304383926392C860.1591045263672,-81.11004383926391,860.2847145263672,-81.37974383926391,860.4251145263672,-81.64574383926391C858.6480545263672,-81.84524383926392,856.0692945263672,-82.38834383926391,854.0151545263672,-83.85514383926392C852.5521392263672,-84.89694383926391,852.1457365263672,-86.85873383926392,853.0619655263672,-88.41780383926391C855.1789245263672,-92.00885383926392,857.8167845263672,-94.05191383926392,860.9016545263672,-94.49154383926391C865.4902645263672,-95.14547783926392,869.6834645263672,-92.04210383926392,871.6008645263672,-90.33154383926392C874.4641645263672,-93.81176383926392,877.6709645263672,-95.62945583926391,881.1400645263672,-95.73660291926392C885.1374645263672,-95.85852083926392,888.6657645263672,-93.55685383926392,890.6164645263672,-91.36601383926391C891.8023645263672,-90.03228383926391,891.7765645263672,-87.99662383926392,890.5610645263672,-86.72941383926391C889.5930645263672,-85.72084383926392,888.3295645263672,-84.93754383926392,886.9330645263672,-84.47574383926391C888.7544645263672,-82.40314383926392,889.5376645263672,-79.11134383926392,889.0352645263672,-75.43904383926392C888.8430645263672,-74.04254383926391,887.7864645263672,-72.88984383926392,886.4047645263672,-72.56844383926392C879.5403645263672,-70.97984383926392,876.5256645263672,-73.22604383926392,874.2165645263672,-75.88974383926391C872.6058645263672,-73.16314383926391,870.3485645263672,-71.34914383926392,864.6221645263672,-70.25934383926392C864.4115645263672,-70.21864383926392,864.2009645263672,-70.20024383926392,863.9940645263672,-70.20024383926392C863.9940645263672,-70.20024383926392,863.9940645263672,-70.20024383926392,863.9940645263672,-70.20024383926392Z" fill="#000F04" fill-opacity="1"/></g><g><path d="M877.6605698815918,-98.89165115356445C877.6605698815918,-98.89165115356445,872.8134008815917,-93.40164115356446,872.0782020115918,-87.08405115356445C872.0338599815918,-86.21585115356446,873.4045298815918,-84.79715115356446,876.1975598815918,-85.80205115356445C877.2948498815917,-86.21215115356445,877.1138198815918,-87.67885115356445,877.1138198815918,-88.86855115356445C877.1138198815918,-90.05812115356446,879.4930598815918,-96.93729115356446,880.6826598815918,-98.16751515356445C879.7220898815918,-98.89163589476445,877.6605698815918,-98.89163589476445,877.6605698815918,-98.89163589476445C877.6605698815918,-98.89163589476445,877.6605698815918,-98.89165115356445,877.6605698815918,-98.89165115356445Z" fill="#A2DD9E" fill-opacity="1"/></g><g><path d="M877.8580176904297,-84.3465C876.7090276904297,-84.3465,875.9479476904297,-84.74549999999999,875.5230876904296,-85.0595C874.7953036904297,-85.5989,874.3888700904297,-86.3784,874.4258268804297,-87.14320000000001C874.4258268804297,-87.1654,874.4295195004297,-87.1912,874.4332121304296,-87.21340000000001C875.1979826904297,-93.79693,880.0783876904297,-99.390411,880.2852976904297,-99.626862C880.4958676904297,-99.866997,880.7987776904297,-100,881.1165276904297,-100C881.5229076904296,-100,883.6103076904296,-99.9556656,884.8073076904296,-99.050514C885.0623076904296,-98.8584,885.2211076904297,-98.56654,885.2433076904297,-98.2525C885.2654076904297,-97.93847,885.1546076904297,-97.62443999999999,884.9329076904297,-97.39539C883.9908576904297,-96.42373,881.7039676904296,-89.9067,881.6743976904297,-88.8648C881.6743976904297,-88.7281,881.6781176904296,-88.584,881.6781176904296,-88.4362C881.7002676904297,-87.2281,881.7335376904297,-85.3993,880.0377376904297,-84.7639C879.1991076904297,-84.4609,878.4712676904297,-84.3464,877.8579876904297,-84.3464C877.8579876904297,-84.3464,877.8580176904297,-84.3465,877.8580176904297,-84.3465ZM876.6462276904297,-87.0545C876.6757976904297,-86.9917,876.7718376904297,-86.8624,876.9860976904297,-86.7479C877.2927376904297,-86.5853,878.0020876904297,-86.3858,879.2730276904297,-86.8439C879.4872876904296,-86.9252,879.4724876904297,-87.8821,879.4614376904296,-88.3956C879.4577176904297,-88.5545,879.4540576904296,-88.7133,879.4540576904296,-88.8685C879.4540576904296,-89.999,881.0759476904296,-95.03093,882.4724276904296,-97.63926000000001C882.1879776904296,-97.69468,881.8887176904296,-97.73532,881.6116476904297,-97.75748C880.5512876904297,-96.43116,877.2521176904297,-91.96821,876.6462276904297,-87.0546C876.6462276904297,-87.0546,876.6462276904297,-87.0545,876.6462276904297,-87.0545ZM892.5584076904297,-48.6317C892.0477076904297,-48.6312,891.6029076904297,-48.9798,891.4810076904297,-49.4757C891.3593076904297,-49.9717,891.5921076904297,-50.4867,892.0449076904297,-50.7228C897.0066076904297,-53.309,899.8403076904297,-57.251,900.4683076904297,-62.4343C900.5422076904297,-63.0402,901.0927076904297,-63.4762,901.7023076904297,-63.4023C902.3082076904296,-63.3284,902.7441076904297,-62.7779,902.6703076904297,-62.1683C902.1752076904297,-58.0748,900.1063076904297,-52.426,893.0719076904297,-48.7573C892.9057076904297,-48.6724,892.7321076904296,-48.6317,892.5584076904297,-48.6317C892.5584076904297,-48.6317,892.5584076904297,-48.6317,892.5584076904297,-48.6317ZM901.4880076904296,-66.4134C900.9449076904297,-66.4134,900.4720076904297,-66.8124,900.3944076904297,-67.3628C900.3944076904297,-67.3628,900.1654076904297,-68.94409999999999,900.1654076904297,-68.94409999999999C900.0776076904297,-69.5501,900.4977076904297,-70.1125,901.1038076904297,-70.2002C901.7098076904297,-70.288,902.2722076904297,-69.8678,902.3599076904297,-69.2618C902.3599076904297,-69.2618,902.5889076904297,-67.6806,902.5889076904297,-67.6806C902.6351076904297,-67.3615,902.5402076904297,-67.0381,902.3287076904297,-66.79480000000001C902.1173076904297,-66.5514,901.8104076904297,-66.4122,901.4880076904296,-66.4134C901.4880076904296,-66.4134,901.4880076904296,-66.4134,901.4880076904296,-66.4134Z" fill="#000F04" fill-opacity="1"/></g></g></svg>