<svg xmlns="http://www.w3.org/2000/svg" xmlns:xlink="http://www.w3.org/1999/xlink" fill="none" version="1.1" width="128.53741455078125" height="150.53036499023438" viewBox="0 0 128.53741455078125 150.53036499023438"><g style="mix-blend-mode:passthrough"><g><path d="M486.95551109313965,-179.61069889526368C486.9555263519396,-146.84359889526365,513.5185110931396,-120.28089889526368,546.2857110931396,-120.28089889526368C579.0528110931397,-120.28089889526368,605.6155110931396,-146.84359889526365,605.6155110931396,-179.61069889526368C605.6155110931396,-212.37789889526368,579.0528110931397,-238.94089889526367,546.2857110931396,-238.94089889526367C513.5185110931396,-238.94089889526367,486.95551109313965,-212.37789889526368,486.95551109313965,-179.61069889526368C486.95551109313965,-179.61069889526368,486.95551109313965,-179.61069889526368,486.95551109313965,-179.61069889526368Z" fill="#FFBAB0" fill-opacity="1"/></g><g><path d="M546.2687220733643,-117.57490160751343C512.0092220733643,-117.58390160751343,484.2431899033643,-145.36260160751343,484.24942312263425,-179.62200160751343C484.24941549323427,-213.87020160751342,512.0205220733643,-241.64378690751343,546.2799220733642,-241.64690160751343C580.5450220733643,-241.64690160751343,608.3184220733642,-213.87580160751344,608.3214220733643,-179.6164016075134C608.2874220733643,-145.36140160751341,580.5236220733642,-117.60290160751343,546.2687220733643,-117.57490160751343C546.2687220733643,-117.57490160751343,546.2687220733643,-117.57490160751343,546.2687220733643,-117.57490160751343ZM546.2687220733643,-236.23476160751343C514.9867220733643,-236.22541160751342,489.6352220733643,-210.85880160751344,489.6445620733643,-179.57680160751343C489.65392207336424,-148.29480160751342,515.0205220733643,-122.94290160751343,546.3025220733642,-122.95290160751343C577.5845220733643,-122.96190160751343,602.9364220733643,-148.32870160751344,602.9264220733643,-179.61070160751342C602.8894220733642,-210.88100160751344,577.5391220733643,-236.21613160751343,546.2687220733643,-236.23476160751343C546.2687220733643,-236.23476160751343,546.2687220733643,-236.23476160751343,546.2687220733643,-236.23476160751343Z" fill="#783741" fill-opacity="1"/></g><g><path d="M528.4425316513061,-224.24357632751466C524.9379316513061,-232.46802632751465,516.1279316513062,-237.08870632751464,507.3694316513062,-235.29599732751464C498.61102165130615,-233.50328632751464,492.32504315130615,-225.79269632751465,492.3337406657362,-216.85267632751464C492.3337406657362,-211.66037632751465,496.86636165130614,-204.16807632751465,500.2658416513062,-200.76857632751467C508.2994316513062,-210.20597632751463,516.4175316513061,-220.23527632751464,528.4425316513061,-224.24357632751466C528.4425316513061,-224.24357632751466,528.4425316513061,-224.24357632751466,528.4425316513061,-224.24357632751466Z" fill="#FFFFFF" fill-opacity="1"/></g><g><path d="M500.2658639877319,-196.72644022827149C499.1926639877319,-196.7207402282715,498.1624239877319,-197.14744022827148,497.40757398773195,-197.91034022827148C493.61909398773196,-201.69884022827148,488.29156478352394,-210.0706402282715,488.29156478352394,-216.85264022827147C488.2887190177319,-227.70404022827148,495.91853398773196,-237.06069022827148,506.5484639877319,-239.24163022827148C517.1784639877319,-241.4225602282715,527.876163987732,-235.82616022827148,532.1463639877319,-225.85034022827148C532.5931639877319,-224.81354022827148,532.585863987732,-223.63714022827148,532.1264639877319,-222.6059402282715C531.6671639877319,-221.57474022827148,530.7974639877319,-220.78264022827148,529.7278639877319,-220.42124022827147C519.309563987732,-216.9372402282715,511.7495639877319,-208.02424022827148,504.35856398773194,-199.43254022827148C504.35856398773194,-199.43254022827148,503.27616398773193,-198.1471402282715,503.27616398773193,-198.1471402282715C502.54156398773193,-197.2864402282715,501.4809639877319,-196.77154022827148,500.3502639877319,-196.7265402282715C500.3502639877319,-196.7265402282715,500.2658639877319,-196.72644022827149,500.2658639877319,-196.72644022827149C500.2658639877319,-196.72644022827149,500.2658639877319,-196.72644022827149,500.2658639877319,-196.72644022827149ZM511.14076398773193,-231.61755022827148C502.9967639877319,-231.59891022827148,496.4020739877319,-224.99664022827147,496.39276398773194,-216.85264022827147C496.39276398773194,-214.28184022827148,498.18554398773193,-210.30734022827147,500.33346398773193,-207.11084022827148C506.7264639877319,-214.55254022827148,513.4746639877319,-221.8757402282715,522.5569639877319,-226.2223402282715C519.7527639877319,-229.6412402282715,515.5625639877319,-231.62147022827148,511.14076398773193,-231.61753022827148C511.14076398773193,-231.61753022827148,511.14076398773193,-231.61755022827148,511.14076398773193,-231.61755022827148Z" fill="#783741" fill-opacity="1"/></g><g><path d="M564.1286621090625,-224.24351362533568C567.6460600390625,-232.4457436253357,576.4434400390625,-237.0465136253357,585.1865400390625,-235.2560996253357C593.9296400390625,-233.4656936253357,600.2105400390625,-225.7771736253357,600.2205400390625,-216.8526136253357C599.7915400390625,-211.0198136253357,597.4080400390625,-205.50211362533568,593.4553400390625,-201.19141362533568C585.4387400390625,-210.6287136253357,576.1537400390625,-220.2352136253357,564.1285400390625,-224.24361362533568C564.1285400390625,-224.24361362533568,564.1286621090625,-224.24351362533568,564.1286621090625,-224.24351362533568Z" fill="#FFFFFF" fill-opacity="1"/></g><g><path d="M593.4891713134766,-197.1492269897461C593.4891713134766,-197.1492269897461,593.3200713134765,-197.1492269897461,593.3200713134765,-197.1492269897461C592.1947713134766,-197.19682698974609,591.1404713134766,-197.7117269897461,590.4110713134766,-198.56992698974608C582.5803713134766,-207.7366269897461,573.8364713134765,-216.73432698974608,562.8432313134765,-220.4213269897461C561.7706013134766,-220.7790269897461,560.8968223134766,-221.5697269897461,560.4339933134765,-222.6013269897461C559.9712853134765,-223.6330269897461,559.9617643134766,-224.8113269897461,560.4076873134766,-225.8503269897461C564.6922913134765,-235.8120169897461,575.3845713134766,-241.3943769897461,586.0073713134766,-239.2157339897461C596.6302713134766,-237.0370969897461,604.2620713134766,-227.69672698974608,604.2794713134765,-216.8527269897461C604.2794713134765,-210.2229269897461,600.2373713134766,-202.2400269897461,596.3473713134765,-198.2486269897461C595.5756713134765,-197.5214269897461,594.5492713134765,-197.1266269897461,593.4890713134765,-197.1492269897461C593.4890713134765,-197.1492269897461,593.4891713134766,-197.1492269897461,593.4891713134766,-197.1492269897461ZM570.0311013134766,-226.2562269897461C579.1132713134766,-222.0449269897461,586.5717713134766,-215.07692698974608,593.2354713134765,-207.65212698974608C594.9314713134765,-210.4487269897461,595.9398713134766,-213.6076269897461,596.1782713134766,-216.8696269897461C596.1706713134765,-223.09402698974608,592.2605713134766,-228.6451269897461,586.4021713134765,-230.7482469897461C580.5437713134766,-232.8513369897461,573.9958713134765,-231.0546369897461,570.0311013134766,-226.2562269897461C570.0311013134766,-226.2562269897461,570.0311013134766,-226.2562269897461,570.0311013134766,-226.2562269897461Z" fill="#783741" fill-opacity="1"/></g><g><path d="M530.9626565917969,-118.85995953369141C530.9626565917969,-118.85995953369141,508.55310059179686,-96.4504595336914,508.55310059179686,-96.4504595336914C508.55310059179686,-96.4504595336914,508.5192565917969,-132.4069595336914,508.5192565917969,-132.4069595336914C508.5192565917969,-132.4069595336914,530.9626565917969,-118.8598595336914,530.9626565917969,-118.8598595336914C530.9626565917969,-118.8598595336914,530.9626565917969,-118.85995953369141,530.9626565917969,-118.85995953369141Z" fill="#FFBAB0" fill-opacity="1"/></g><g><path d="M508.5530852929688,-92.4758909790039C506.3206452929688,-92.4758909790039,504.51092529296875,-94.2855909790039,504.51092529296875,-96.51809097900392C504.51092529296875,-96.51809097900392,504.51092529296875,-132.4745909790039,504.51092529296875,-132.4745909790039C504.5368957929688,-133.92149097900392,505.33436629296875,-135.2441209790039,506.6018252929687,-135.9423659790039C507.8692752929687,-136.64066997900392,509.4133152929688,-136.60825997900392,510.65026529296875,-135.8572219790039C510.65026529296875,-135.8572219790039,533.0935252929687,-122.32699097900391,533.0935252929687,-122.32699097900391C534.1486252929687,-121.67549097900391,534.8515252929687,-120.58079097900391,535.0047252929687,-119.3502909790039C535.1675252929688,-118.10539097900391,534.7425252929687,-116.8554909790039,533.8546252929688,-115.96779097900391C533.8546252929688,-115.96779097900391,511.4113752929687,-93.5921909790039,511.4113752929687,-93.5921909790039C510.64338529296873,-92.8572909790039,509.6158752929687,-92.4559909790039,508.55311529296876,-92.4757909790039C508.55311529296876,-92.4757909790039,508.5530852929688,-92.4758909790039,508.5530852929688,-92.4758909790039ZM512.5783252929688,-125.3037909790039C512.5783252929688,-125.3037909790039,512.5783252929688,-106.2091909790039,512.5783252929688,-106.2091909790039C512.5783252929688,-106.2091909790039,524.4173252929687,-118.0481909790039,524.4173252929687,-118.0481909790039C524.4173252929687,-118.0481909790039,512.5783252929688,-125.3037909790039,512.5783252929688,-125.3037909790039C512.5783252929688,-125.3037909790039,512.5783252929688,-125.3037909790039,512.5783252929688,-125.3037909790039Z" fill="#783741" fill-opacity="1"/></g><g><path d="M562.9615783691406,-118.85995953369141C562.9615783691406,-118.85995953369141,585.3541783691406,-96.4504595336914,585.3541783691406,-96.4504595336914C585.3541783691406,-96.4504595336914,585.3880783691407,-132.4069595336914,585.3880783691407,-132.4069595336914C585.3880783691407,-132.4069595336914,562.9615783691406,-118.8598595336914,562.9615783691406,-118.8598595336914C562.9615783691406,-118.8598595336914,562.9615783691406,-118.85995953369141,562.9615783691406,-118.85995953369141Z" fill="#FFBAB0" fill-opacity="1"/></g><g><path d="M585.3541085571289,-92.4757994140625C584.281608557129,-92.47399941406249,583.2528085571289,-92.90009941406251,582.4959085571289,-93.65979941406249C582.4959085571289,-93.65979941406249,560.1034185571289,-116.0015994140625,560.1034185571289,-116.0015994140625C559.2212805571289,-116.8792994140625,558.7925085571289,-118.1143994140625,558.9411906571289,-119.34989941406249C559.0898115571289,-120.5853994140625,559.7992835571289,-121.6834994140625,560.8644685571289,-122.3268994140625C560.8644685571289,-122.3268994140625,583.307808557129,-135.8572214140625,583.307808557129,-135.8572214140625C584.5421085571289,-136.6108224140625,586.0860085571289,-136.6443314140625,587.351808557129,-135.9449294140625C588.6178085571289,-135.2455894140625,589.4112085571289,-133.9207594140625,589.4303085571289,-132.4745894140625C589.4303085571289,-132.4745894140625,589.4303085571289,-96.4503994140625,589.4303085571289,-96.4503994140625C589.4144085571289,-94.7971994140625,588.3977085571289,-93.3187994140625,586.859508557129,-92.71259941406251C586.3765085571289,-92.54219941406251,585.8662085571289,-92.4617994140625,585.3542085571289,-92.4757994140625C585.3542085571289,-92.4757994140625,585.3541085571289,-92.4757994140625,585.3541085571289,-92.4757994140625ZM569.4730085571289,-118.0649994140625C569.4730085571289,-118.0649994140625,581.3120085571289,-106.2260994140625,581.3120085571289,-106.2260994140625C581.3120085571289,-106.2260994140625,581.3120085571289,-125.2360994140625,581.3120085571289,-125.2360994140625C581.3120085571289,-125.2360994140625,569.4730085571289,-118.0649994140625,569.4730085571289,-118.0649994140625C569.4730085571289,-118.0649994140625,569.4730085571289,-118.0649994140625,569.4730085571289,-118.0649994140625Z" fill="#783741" fill-opacity="1"/></g><g><path d="M486.95551109313965,-168.82028599243165C486.9555263519396,-136.05318599243162,513.5185110931396,-109.49048599243164,546.2857110931396,-109.49048599243164C579.0528110931397,-109.49048599243164,605.6155110931396,-136.05318599243162,605.6155110931396,-168.82028599243165C605.6155110931396,-201.58748599243165,579.0528110931397,-228.15048599243164,546.2857110931396,-228.15048599243164C513.5185110931396,-228.15048599243164,486.95551109313965,-201.58748599243165,486.95551109313965,-168.82028599243165C486.95551109313965,-168.82028599243165,486.95551109313965,-168.82028599243165,486.95551109313965,-168.82028599243165Z" fill="#FFBAB0" fill-opacity="1"/></g><g><path d="M546.2687220733643,-106.78451779174804C512.0092220733643,-106.79351779174804,484.2431899033643,-134.57221779174805,484.24942312263425,-168.83161779174804C484.24940786386423,-203.07981779174804,512.0205220733643,-230.85340500174806,546.2799220733642,-230.85651779174805C580.5450220733643,-230.85651779174805,608.3184220733642,-203.08541779174806,608.3214220733643,-168.82601779174803C608.2874220733643,-134.57101779174803,580.5236220733642,-106.81251779174805,546.2687220733643,-106.78451779174804C546.2687220733643,-106.78451779174804,546.2687220733643,-106.78451779174804,546.2687220733643,-106.78451779174804ZM546.2687220733643,-225.46138779174805C514.9889220733643,-225.45203779174804,489.63834207336424,-200.08881779174806,489.6445620733643,-168.80901779174803C489.6445620733643,-137.54051779174804,515.0002220733643,-112.18251779174804,546.2800220733643,-112.17951779174804C577.5654220733643,-112.17951779174804,602.9234220733642,-137.53491779174806,602.9264220733643,-168.81471779174805C602.9014220733643,-200.09391779174805,577.5479220733642,-225.44273779174804,546.2687220733643,-225.46137779174805C546.2687220733643,-225.46137779174805,546.2687220733643,-225.46138779174805,546.2687220733643,-225.46138779174805Z" fill="#783741" fill-opacity="1"/></g><g><path d="M585.354,-92.476C584.312,-92.475,583.31,-92.881,582.564,-93.60900000000001C582.564,-93.60900000000001,567.6633,-107.917,567.6633,-107.917C560.898,-105.75899999999999,553.8257,-104.719,546.7254,-104.839C539.8747,-104.63999999999999,533.0331,-105.47300000000001,526.43,-107.30799999999999C526.43,-107.30799999999999,511.2085,-93.524,511.2085,-93.524C510.0245,-92.445,508.3148,-92.167,506.8498,-92.815C505.3848,-93.464,504.4409,-94.916,504.4433,-96.518C504.4433,-96.518,504.4434,-119.384,504.4434,-119.384C490.47874,-132.07299999999998,482.360275,-149.9555,482,-168.8203C482,-168.8203,482,-179.6107,482,-179.6107C482.229752,-189.9376,485.02542,-200.04500000000002,490.13507,-209.0221C489.01065,-211.4854,488.38415,-214.1466,488.29156,-216.8528C488.29852,-224.6353,492.2633,-231.8799,498.8145,-236.08088C505.3658,-240.28188,513.6039,-240.86239,520.6796,-237.62161C536.9971,-244.79279,555.574,-244.79279,571.8915,-237.62162C578.9672,-240.86245,587.205,-240.28197,593.7570000000001,-236.08093C600.308,-231.8799,604.273,-224.6352,604.28,-216.8526C604.1949999999999,-214.0466,603.622,-211.2768,602.588,-208.6668C607.575,-199.7774,610.304,-189.8005,610.537,-179.6107C610.537,-179.6107,610.537,-168.8204,610.537,-168.8204C610.201,-150.4783,602.597,-133.01999999999998,589.396,-120.281C589.396,-120.281,589.396,-96.44999999999999,589.396,-96.44999999999999C589.386,-94.83000000000001,588.417,-93.369,586.927,-92.72999999999999C586.425,-92.53999999999999,585.89,-92.45400000000001,585.354,-92.476C585.354,-92.476,585.354,-92.476,585.354,-92.476ZM511.1408,-231.6176C502.9968,-231.59890000000001,496.4021,-224.9966,496.3928,-216.8527C496.5792,-214.67849999999999,497.2249,-212.5687,498.287,-210.6626C498.881,-209.4605,498.843,-208.0426,498.1855,-206.8741C492.8073,-197.3353,490.08427,-188.25310000000002,490.08427,-179.6107C490.08427,-179.6107,490.08427,-168.8204,490.08427,-168.8204C490.3917,-151.6558,498.0463,-135.447,511.1068,-124.306C512.0138,-123.538,512.5442,-122.416,512.5613,-121.228C512.5613,-121.228,512.5613,-105.63399999999999,512.5613,-105.63399999999999C512.5613,-105.63399999999999,522.7090000000001,-114.88499999999999,522.7090000000001,-114.88499999999999C523.8277,-115.915,525.4325,-116.222,526.8527,-115.68C531.9265,-113.769,538.0658,-112.90700000000001,546.6575,-112.90700000000001C553.6214,-112.71700000000001,560.557,-113.86500000000001,567.0882,-116.289C568.5628,-116.866,570.2378,-116.536,571.384,-115.443C571.384,-115.443,581.3289,-106.006,581.3289,-106.006C581.3289,-106.006,581.3289,-122.073,581.3289,-122.073C581.33,-123.237,581.8285,-124.345,582.699,-125.118C595.026,-136.341,602.179,-152.1517,602.47,-168.8203C602.47,-168.8203,602.47,-179.6107,602.47,-179.6107C602.47,-188.0671,599.832,-197.0986,594.622,-206.4513C594.012,-207.56119999999999,593.949,-208.8915,594.453,-210.0537C595.451,-212.17770000000002,596.025,-214.4754,596.145,-216.81889999999999C596.151,-222.0978,593.335,-226.9773,588.761,-229.6133C584.187,-232.2492,578.5534,-232.2396,573.9887,-229.588C572.8318,-228.937,571.4297,-228.8928,570.2341,-229.4696C555.0943,-236.73193,537.4769,-236.73193,522.3371,-229.4696C521.1285,-228.8822,519.7061,-228.9393,518.5486,-229.6219C516.298,-230.9275,513.7427,-231.6159,511.1408,-231.6176C511.1408,-231.6176,511.1408,-231.6176,511.1408,-231.6176Z" fill="#783741" fill-opacity="1"/></g><g><path d="M501.78792572023673,-168.82028934936523C501.7878646850367,-144.24488934936522,521.7101952026367,-124.32258934936523,546.2855952026367,-124.32258934936523C570.8608952026367,-124.32258934936523,590.7831952026368,-144.24488934936522,590.7831952026368,-168.82028934936523C590.7832952026367,-193.39568934936523,570.8608952026367,-213.31798934936523,546.2855952026367,-213.31798934936523C521.7101952026367,-213.31798934936523,501.7878952026367,-193.39568934936523,501.7878952026367,-168.82028934936523C501.7878952026367,-168.82028934936523,501.78792572023673,-168.82028934936523,501.78792572023673,-168.82028934936523Z" fill="#FFFFFF" fill-opacity="1"/></g><g><path d="M546.2686939941407,-121.63364396362304C520.1966939941407,-121.63354396362304,499.0619815441406,-142.77084396362307,499.0650943379436,-168.84284396362304C499.0650943379436,-194.90924396362306,520.2022939941406,-216.04394115362305,546.2742939941406,-216.04084362318105C572.3406939941406,-216.04084362318105,593.4753939941406,-194.90364396362304,593.4722939941406,-168.83164396362304C593.4412939941407,-142.77554396362305,572.3246939941406,-121.66154396362305,546.2686939941407,-121.63354396362304C546.2686939941407,-121.63354396362304,546.2686939941407,-121.63364396362304,546.2686939941407,-121.63364396362304ZM546.2686939941407,-210.62881396362306C523.1806939941406,-210.61947396362305,504.4708739941406,-191.89704396362305,504.4771139941406,-168.80904396362305C504.4833239941406,-145.72104396362306,523.2031939941406,-127.00874396362305,546.2911939941406,-127.01184396362305C569.3735939941406,-127.01184396362305,588.0908939941406,-145.72674396362305,588.0939939941406,-168.81464396362304C588.0691939941406,-191.90214396362305,569.3560939941406,-210.61014396362305,546.2686939941407,-210.62881396362306C546.2686939941407,-210.62881396362306,546.2686939941407,-210.62881396362306,546.2686939941407,-210.62881396362306Z" fill="#783741" fill-opacity="1"/></g><g><path d="M570.9443343688965,-166.13109432983399C570.9443343688965,-166.13109432983399,546.2686143688965,-166.13109432983399,546.2686143688965,-166.13109432983399C544.7806743688965,-166.13109432983399,543.5718686688965,-167.332394329834,543.5626218588965,-168.82029432983398C543.5626218588965,-168.82029432983398,543.5626218588965,-195.880774329834,543.5626218588965,-195.880774329834C543.4822080688965,-196.895514329834,543.9779963688965,-197.869518329834,544.8458543688965,-198.40156132983398C545.7136843688965,-198.933605329834,546.8067043688965,-198.933605329834,547.6744643688965,-198.40156132983398C548.5423543688964,-197.86954832983398,549.0381443688965,-196.895514329834,548.9577943688964,-195.880774329834C548.9577943688964,-195.880774329834,548.9577943688964,-171.52639432983398,548.9577943688964,-171.52639432983398C548.9577943688964,-171.52639432983398,570.9444343688965,-171.52639432983398,570.9444343688965,-171.52639432983398C572.3516343688965,-171.414894329834,573.4368343688965,-170.24039432983398,573.4368343688965,-168.82879432983398C573.4368343688965,-167.417194329834,572.3516343688965,-166.242694329834,570.9444343688965,-166.131194329834C570.9444343688965,-166.131194329834,570.9443343688965,-166.13109432983399,570.9443343688965,-166.13109432983399Z" fill="#783741" fill-opacity="1"/></g><g><path d="M540.1124267578125,-168.8203473852539C540.1124267578125,-165.4110173852539,542.8763167578124,-162.64720738525392,546.2856467578125,-162.64720738525392C549.6949767578125,-162.64720738525392,552.4588267578125,-165.4110173852539,552.4588267578125,-168.8203473852539C552.4588267578125,-172.2296873852539,549.6949767578125,-174.9935073852539,546.2856467578125,-174.9935073852539C542.8763167578124,-174.9935073852539,540.1124267578125,-172.2296873852539,540.1124267578125,-168.8203473852539C540.1124267578125,-168.8203473852539,540.1124267578125,-168.8203473852539,540.1124267578125,-168.8203473852539Z" fill="#FFBAB0" fill-opacity="1"/></g><g><path d="M546.2687120703125,-159.95805533447265C541.3741420703125,-159.95805533447265,537.4063720703125,-163.92585533447266,537.4063720703125,-168.82028533447266C537.4063720703125,-173.71485533447265,541.3741420703125,-177.68265533447266,546.2687120703125,-177.68265533447266C551.1631720703125,-177.68265533447266,555.1309720703125,-173.71485533447265,555.1309720703125,-168.82035533447265C555.1217720703125,-163.92965533447267,551.1593720703125,-159.96725533447267,546.2687120703125,-159.95805533447265C546.2687120703125,-159.95805533447265,546.2687120703125,-159.95805533447265,546.2687120703125,-159.95805533447265ZM546.2687120703125,-172.28748533447265C544.4122620703125,-172.24103533447266,542.9404020703125,-170.70667533447266,542.9711620703125,-168.84995533447267C543.0019220703125,-166.99315533447265,544.5237720703125,-165.50845533447264,546.3807020703125,-165.52355533447266C548.2376720703126,-165.53865533447265,549.7352720703125,-167.04785533447264,549.7357720703125,-168.90491533447266C549.6898720703125,-170.78665533447267,548.1509720703125,-172.28803533447265,546.2687120703125,-172.28748533447265C546.2687120703125,-172.28748533447265,546.2687120703125,-172.28748533447265,546.2687120703125,-172.28748533447265Z" fill="#783741" fill-opacity="1"/></g><g><path d="M548.7549295013428,-204.59086166381837C548.7642295013428,-203.22723166381837,547.6662295013427,-202.11421166381837,546.3025295013427,-202.10488166381836C544.9389295013427,-202.09556166381836,543.8259295013428,-203.19345166381837,543.8165295013428,-204.55712166381835C543.8071295013427,-205.92082166381837,544.9050295013428,-207.03390273381837,546.2686295013427,-207.04330214791835C547.6324295013428,-207.05267104381835,548.7455295013427,-205.95472166381836,548.7548295013428,-204.59094166381837C548.7548295013428,-204.59094166381837,548.7549295013428,-204.59086166381837,548.7549295013428,-204.59086166381837ZM584.5085295013428,-168.82036166381835C584.5085295013428,-167.45656166381838,583.4030295013428,-166.35106166381837,582.0392295013428,-166.35106166381837C580.6755295013428,-166.35106166381837,579.5700295013428,-167.45656166381838,579.5700295013428,-168.82036166381835C579.5700295013428,-170.18406166381837,580.6755295013428,-171.28966166381835,582.0392295013428,-171.28966166381835C582.6955295013428,-171.29416166381836,583.3262295013428,-171.03546166381835,583.7903295013427,-170.57146166381835C584.2544295013428,-170.10736166381835,584.5130295013428,-169.47666166381836,584.5085295013428,-168.82036166381835C584.5085295013428,-168.82036166381835,584.5085295013428,-168.82036166381835,584.5085295013428,-168.82036166381835ZM548.7549295013428,-133.06676166381834C548.7549295013428,-131.70516166381836,547.6528295013428,-130.60056166381835,546.2913295013427,-130.59746166381836C544.9298295013427,-130.59426166381837,543.8226295013428,-131.69386166381835,543.8164295013428,-133.05536166381836C543.8102295013427,-134.41686166381837,544.9071295013428,-135.52656166381837,546.2686295013427,-135.53586166381837C547.6352295013428,-135.53586166381837,548.7456295013428,-134.43306166381836,548.7549295013428,-133.06656166381836C548.7549295013428,-133.06656166381836,548.7549295013428,-133.06676166381834,548.7549295013428,-133.06676166381834ZM512.9842195013427,-168.82036166381835C512.9842195013427,-167.82016166381837,512.3807695013428,-166.91866166381837,511.45602950134275,-166.53746166381836C510.5311895013428,-166.15636166381836,509.4677895013428,-166.37066166381837,508.7629555013428,-167.08036166381837C508.05809110134277,-167.79006166381836,507.8510145013428,-168.85496166381836,508.23855650134277,-169.77706166381836C508.6260695013428,-170.69916166381836,509.53164950134277,-171.29646166381838,510.5318895013428,-171.28966166381835C511.18526950134276,-171.28966166381835,511.81161950134276,-171.02886166381836,512.2719995013427,-170.56536166381835C512.7323295013427,-170.10176166381837,512.9887095013428,-169.47366166381835,512.9842195013427,-168.82036166381835C512.9842195013427,-168.82036166381835,512.9842195013427,-168.82036166381835,512.9842195013427,-168.82036166381835Z" fill="#783741" fill-opacity="1"/></g></g></svg>